<svg viewBox="0 0 112 24" fill="none" xmlns="http://www.w3.org/2000/svg"><rect width="24" height="24" rx="6" fill="#25AE9D"/><rect x="6" y="6" width="12" height="12" rx="2" fill="#fff" stroke="#0F0F0F" stroke-width="4"/><path d="M35.472 5.864V17.5h-2.46V5.864zm11.757 0V17.5h-2.125l-5.063-7.324h-.085V17.5h-2.46V5.864h2.159l5.023 7.318h.102V5.864zM49.26 17.5V5.864h7.705v2.028h-5.244v2.773h4.733v2.028h-4.733V17.5zm9.36 0V5.864h7.84v2.028h-5.38v2.773h4.977v2.028H61.08v2.779h5.403V17.5zm9.797 0V5.864h4.59q1.32 0 2.25.471.938.466 1.427 1.324.495.852.494 2.006 0 1.159-.5 1.994-.5.83-1.449 1.273-.943.443-2.284.443h-3.074v-1.977h2.676q.705 0 1.17-.194a1.4 1.4 0 0 0 .694-.579q.233-.387.233-.96 0-.58-.233-.977a1.43 1.43 0 0 0-.699-.603q-.466-.21-1.176-.21h-1.66V17.5zm6.284-5.296 2.892 5.296h-2.716l-2.83-5.296zm4.216 5.296V5.864h7.84v2.028h-5.38v2.773h4.977v2.028h-4.977v2.779h5.403V17.5zm19.53-11.636V17.5h-2.126l-5.062-7.324h-.085V17.5h-2.46V5.864h2.159l5.022 7.318H96V5.864zm12.299 4.074h-2.488a2.5 2.5 0 0 0-.279-.858q-.21-.381-.54-.648a2.4 2.4 0 0 0-.761-.41 2.9 2.9 0 0 0-.926-.141q-.903 0-1.574.449-.67.443-1.04 1.295-.369.846-.369 2.057 0 1.245.369 2.09.375.847 1.046 1.28.67.43 1.551.431.493 0 .915-.13.426-.132.755-.381.33-.255.546-.62.221-.363.307-.83l2.488.012a4.64 4.64 0 0 1-1.511 2.87q-.642.58-1.534.92-.887.335-2.006.335-1.557 0-2.784-.704-1.221-.705-1.932-2.04-.704-1.335-.704-3.233 0-1.905.715-3.239.716-1.335 1.944-2.034 1.227-.704 2.761-.704a6 6 0 0 1 1.875.284q.87.284 1.54.83.67.539 1.091 1.323.426.784.545 1.796" fill="currentColor"/></svg>