<svg viewBox="0 0 20 20" fill="none" xmlns="http://www.w3.org/2000/svg"><path d="M12.917 10.958h-1.809a2.69 2.69 0 0 1-2.691-2.691V6.458a.624.624 0 0 0-.625-.625H5.15c-1.925 0-3.483 1.25-3.483 3.484v5.533c0 2.233 1.558 3.483 3.483 3.483h4.908c1.925 0 3.484-1.25 3.484-3.483v-3.267a.624.624 0 0 0-.625-.625" fill="currentColor"/><path d="M14.85 1.667H9.942c-1.884 0-3.409 1.2-3.475 3.341.05 0 .091-.008.141-.008h4.909C13.442 5 15 6.25 15 8.483v5.542c0 .05-.008.092-.008.133 1.858-.058 3.341-1.291 3.341-3.466V5.15c0-2.233-1.558-3.483-3.483-3.483" fill="currentColor"/><path d="M9.983 5.958c-.258-.258-.7-.083-.7.275v2.184c0 .916.775 1.666 1.725 1.666.592.009 1.417.009 2.125.009.359 0 .542-.417.292-.667a682 682 0 0 1-3.442-3.467" fill="currentColor"/></svg>