<svg viewBox="0 0 20 20" fill="none" xmlns="http://www.w3.org/2000/svg"><path fill-rule="evenodd" clip-rule="evenodd" d="M10 1.5a5.17 5.17 0 0 0-4.716 3.053c-.047.105-.08.18-.105.233l-.021.047H5a3.5 3.5 0 0 0-.465 6.97l1.97-1.97H5a1.5 1.5 0 1 1 0-3h.032c.094 0 .194 0 .266-.005a2 2 0 0 0 .961-.294c.324-.21.523-.496.663-.757.034-.063.093-.194.161-.347l.026-.058a3.168 3.168 0 0 1 5.782 0l.026.057c.069.154.127.285.161.348.14.26.339.547.663.757s.666.274.961.294c.072.005.172.005.266.005H15a1.5 1.5 0 0 1 0 3h-1.505l1.97 1.97a3.5 3.5 0 0 0-.606-6.97h-.017l-.021-.047-.105-.233A5.17 5.17 0 0 0 10 1.5" fill="currentColor"/><path d="m10 10-.707-.707.707-.707.707.707zm1 7.5a1 1 0 1 1-2 0zm-5.04-4.874 3.333-3.333 1.414 1.414-3.333 3.333zm4.747-3.333 3.333 3.333-1.414 1.414-3.333-3.333zM11 10v7.5H9V10z" fill="currentColor"/></svg>