<svg viewBox="0 0 20 20" fill="none" xmlns="http://www.w3.org/2000/svg"><rect x="5" y="10.833" width="3.333" height="3.333" rx="1.667" transform="rotate(90 5 10.833)" stroke="currentColor" stroke-width="2"/><rect x="14.167" y="10" width="3.333" height="3.333" rx="1.667" transform="rotate(-90 14.167 10)" stroke="currentColor" stroke-width="2"/><path d="m15 9.167-1.25 1.25c-.623.623-.935.934-1.28 1.086a2 2 0 0 1-1.607 0c-.345-.152-.656-.463-1.28-1.086-.623-.624-.935-.935-1.279-1.087a2 2 0 0 0-1.608 0c-.344.152-.656.463-1.28 1.087l-1.25 1.25" stroke="currentColor" stroke-width="2"/></svg>