<svg viewBox="0 0 20 20" fill="none" xmlns="http://www.w3.org/2000/svg"><path d="M12.5 2.5h-5a3.333 3.333 0 0 0-3.333 3.333V12.5" stroke="currentColor" stroke-width="2"/><path d="M7.667 9.583c0-1 .001-1.667.058-2.17.054-.484.149-.693.251-.826a1.5 1.5 0 0 1 .277-.277c.134-.103.342-.197.826-.252.504-.057 1.17-.058 2.17-.058s1.668.001 2.172.058c.484.055.692.15.825.252a1.5 1.5 0 0 1 .277.277l.794-.609-.794.609c.103.133.197.342.252.825.057.504.058 1.17.058 2.171v3.334c0 1-.001 1.667-.058 2.17-.055.484-.15.693-.252.826l.794.609-.794-.609a1.5 1.5 0 0 1-.277.277c-.133.102-.341.197-.825.252-.504.056-1.17.058-2.171.058s-1.667-.002-2.171-.058c-.484-.055-.692-.15-.826-.252a1.5 1.5 0 0 1-.277-.277c-.102-.133-.197-.342-.251-.825-.057-.504-.058-1.17-.058-2.171z" stroke="currentColor" stroke-width="2"/></svg>