<svg viewBox="0 0 20 20" fill="none" xmlns="http://www.w3.org/2000/svg"><path d="M10.976 2.5H7.5c-1.571 0-2.357 0-2.845.488s-.488 1.274-.488 2.845v8.334c0 1.571 0 2.357.488 2.845s1.274.488 2.845.488h5c1.571 0 2.357 0 2.845-.488s.488-1.274.488-2.845v-6.81c0-.34 0-.51-.063-.664-.063-.153-.184-.274-.425-.514l-3.19-3.19c-.241-.242-.361-.362-.515-.426-.153-.063-.323-.063-.664-.063Z" stroke="currentColor" stroke-width="2"/><path d="M7.5 10.833h5m-5 3.334h3.333" stroke="currentColor" stroke-width="2" stroke-linecap="round"/><path d="M10.833 2.5v3.333c0 .786 0 1.179.244 1.423.245.244.637.244 1.423.244h3.333" stroke="currentColor" stroke-width="2"/></svg>