<svg viewBox="0 0 20 20" fill="none" xmlns="http://www.w3.org/2000/svg"><rect width="5" height="5" rx="1" transform="matrix(1 0 0 -1 11.667 8.333)" stroke="currentColor" stroke-width="2" stroke-linecap="round"/><path d="M8.333 11.667h3c.943 0 1.415 0 1.707.292.293.293.293.765.293 1.707v1c0 .943 0 1.415-.293 1.708-.292.293-.764.293-1.707.293h-3zm0-3c0-.943 0-1.415-.293-1.708-.292-.292-.764-.292-1.707-.292h-1c-.942 0-1.414 0-1.707.292-.293.293-.293.765-.293 1.707v3h5zm0 8h-3c-.942 0-1.414 0-1.707-.293s-.293-.765-.293-1.707v-3h5z" stroke="currentColor" stroke-width="2" stroke-linecap="round"/></svg>