<svg viewBox="0 0 20 20" fill="none" xmlns="http://www.w3.org/2000/svg"><path fill-rule="evenodd" clip-rule="evenodd" d="M10 1.318c-.657 0-1.23.421-2.373 1.265l-.979.72c-.18.134-.27.2-.367.256s-.199.1-.404.19l-1.114.487c-1.302.569-1.953.854-2.282 1.423s-.25 1.275-.091 2.688l.135 1.208c.025.222.038.333.038.445s-.013.223-.038.445l-.135 1.208c-.158 1.412-.238 2.119.091 2.688.329.57.98.854 2.282 1.423l1.114.487c.205.09.308.134.404.19s.187.122.367.255l.979.721c1.144.843 1.716 1.265 2.373 1.265s1.23-.421 2.373-1.265l.979-.72c.18-.134.27-.2.367-.256s.2-.1.404-.19l1.114-.487c1.302-.57 1.953-.854 2.282-1.423s.25-1.275.091-2.688l-.135-1.208c-.025-.222-.038-.333-.038-.445s.013-.223.038-.445l.135-1.208c.159-1.413.238-2.119-.091-2.688-.329-.57-.98-.854-2.282-1.423l-1.114-.487c-.205-.09-.307-.134-.404-.19a4 4 0 0 1-.367-.255l-.979-.721C11.23 1.739 10.658 1.318 10 1.318m0 12.015a3.333 3.333 0 1 0 0-6.666 3.333 3.333 0 0 0 0 6.666" fill="currentColor"/></svg>