<svg viewBox="0 0 18 20" fill="none" xmlns="http://www.w3.org/2000/svg"><path fill-rule="evenodd" clip-rule="evenodd" d="m13.41 11.25-3.266 6.301A2.23 2.23 0 0 1 9 18.62a1.92 1.92 0 0 1-1.487-.026 2.25 2.25 0 0 1-1.115-1.107 2.7 2.7 0 0 1-.208-1.657l.278-1.454.356-1.875H3.557c-.343 0-.68-.089-.988-.26a2.3 2.3 0 0 1-.781-.727 2.7 2.7 0 0 1-.413-1.042 2.8 2.8 0 0 1 .04-1.14l.977-3.952c.284-1.15.924-2.148 1.805-2.814s1.943-.954 2.997-.815l5.66.75zM7 3.613l4.29.568.422 6.625-3.009 5.8a.5.5 0 0 1-.256.239.43.43 0 0 1-.332-.006.5.5 0 0 1-.25-.247.6.6 0 0 1-.046-.37l.634-3.33.433-2.267H3.558a.5.5 0 0 1-.247-.065.6.6 0 0 1-.196-.182.7.7 0 0 1-.093-.546L4 5.88c.177-.718.577-1.342 1.127-1.758a2.54 2.54 0 0 1 1.872-.51zm7.8 7.077q.01.19.082.359a.9.9 0 0 0 .198.295q.126.124.285.185a.75.75 0 0 0 .643-.051.9.9 0 0 0 .258-.229 1 1 0 0 0 .16-.323 1 1 0 0 0 .036-.368l-.555-8.75a.98.98 0 0 0-.29-.63.78.78 0 0 0-.6-.222.8.8 0 0 0-.565.314 1 1 0 0 0-.207.67z" fill="currentColor"/></svg>