<svg viewBox="0 0 20 20" fill="none" xmlns="http://www.w3.org/2000/svg"><path d="M17.558 4.358a93 93 0 0 0-4.033-.308v-.008l-.183-1.084c-.125-.766-.309-1.916-2.259-1.916H8.9c-1.942 0-2.125 1.1-2.258 1.908l-.175 1.067c-.775.05-1.55.1-2.325.175l-1.7.166a.626.626 0 0 0-.567.684.62.62 0 0 0 .683.558l1.7-.167c4.367-.433 8.767-.266 13.184.175h.066a.63.63 0 0 0 .625-.566.64.64 0 0 0-.575-.684m-1.533 2.425a1.05 1.05 0 0 0-.758-.325H4.733a1.04 1.04 0 0 0-1.041 1.109l.516 8.55c.092 1.266.209 2.85 3.117 2.85h5.35c2.908 0 3.025-1.575 3.117-2.85l.516-8.542a1.08 1.08 0 0 0-.283-.792m-4.642 8.009H8.608a.63.63 0 0 1-.625-.625.63.63 0 0 1 .625-.625h2.775a.63.63 0 0 1 .625.625.63.63 0 0 1-.625.625m.7-3.334H7.917a.63.63 0 0 1-.625-.625.63.63 0 0 1 .625-.625h4.166a.63.63 0 0 1 .625.625.63.63 0 0 1-.625.625" fill="currentColor"/></svg>